<svg viewBox="0 0 500 258.6" xmlns="http://www.w3.org/2000/svg"><defs><style>.cls-1{fill:#e00;fill-rule:evenodd}</style></defs><g data-name="Capa 2"><g data-name="Слой 1"><path d="M137.8 118.2h9a12.79 12.79 0 0 0 2.1-.1 5 5 0 0 0 1.3-.5 2.64 2.64 0 0 0 .8-1.3 13.2 13.2 0 0 0 .8-2.2l3.4-11.5H180l3.5 11.4a19.92 19.92 0 0 0 .8 2.3 7.3 7.3 0 0 0 .9 1.3 2.23 2.23 0 0 0 1.3.6c.5 0 1.2.1 1.8.1h9.7c1.9 0 2.8-.8 2.8-2.3v-1a2.67 2.67 0 0 0-.4-1l-21.8-66.1c-.5-1.4-1-2.5-1.7-2.8a5.87 5.87 0 0 0-3-.6h-12a5 5 0 0 0-3.1.8 5.57 5.57 0 0 0-1.6 2.8l-22 66.1a3.49 3.49 0 0 0-.4 2.1c.2 1.1 1.1 1.9 3 1.9Zm29.6-56.8 8.5 27.9h-16.8Zm22.5 79h-7a5.93 5.93 0 0 0-3.6.8c-.6.5-.9 1.6-.9 3.2v39.2l-20.6-39.3a7.36 7.36 0 0 0-2.5-3.2 10.06 10.06 0 0 0-4.1-.6h-6.5a5.93 5.93 0 0 0-3.6.8c-.6.5-.9 1.6-.9 3.2v66.1a5 5 0 0 0 .8 3.2c.5.5 1.7.8 3.5.8h7.1a5.93 5.93 0 0 0 3.6-.8c.6-.5.9-1.6.9-3.2v-39.3l20.6 39.4a7.36 7.36 0 0 0 2.5 3.2 10.06 10.06 0 0 0 4.1.6h6.5a5.93 5.93 0 0 0 3.6-.8c.6-.5.9-1.6.9-3.2v-66.1a4.37 4.37 0 0 0-.9-3.2c-.5-.5-1.7-.8-3.5-.8Z"/><path d="M0 0v114.4l14.9 14.9-14.9 15v114.3h500V0Zm241.5 107.4-17.1 17.1a6.88 6.88 0 0 0 0 9.6l17.1 17.1v91.1H16.2V152l17.9-18a6.88 6.88 0 0 0 0-9.6l-17.9-17.8V16.2h225.3Z"/><path d="M69.2 214.3H115c1.6 0 2.6-.3 3.1-.9s.8-1.8.8-3.7v-6.2c0-1.8-.3-3.1-.8-3.6s-1.6-.9-3.1-.9H85.7l30.8-43.3a4.7 4.7 0 0 0 .9-1.7 5.77 5.77 0 0 0 .3-1.4v-8.3a4.37 4.37 0 0 0-.9-3.2 5.93 5.93 0 0 0-3.6-.8H68.8c-1.6 0-2.6.3-3.1.9s-.8 1.8-.8 3.7v6.2a6.3 6.3 0 0 0 .8 3.7c.5.6 1.6.9 3.1.9h27.4L65.8 199a4.6 4.6 0 0 0-1.2 3v8.5a4.37 4.37 0 0 0 .9 3.2 7.7 7.7 0 0 0 3.7.6Zm0-96.1h23.9c11.2 0 19-4.8 23.1-14.5a27.39 27.39 0 0 0 2.1-6.7 51.72 51.72 0 0 0 .5-8.5v-14c0-3.9-.3-7.1-.5-9.3a21.51 21.51 0 0 0-2.1-6.5 24.72 24.72 0 0 0-10-10.9c-4.1-2.3-9.4-3.5-15.8-3.5H69.2a5.93 5.93 0 0 0-3.6.8c-.5.4-.9 1.4-.9 3v66.1a4.37 4.37 0 0 0 .9 3.2c.6.5 1.7.8 3.6.8Zm12.4-59.5h8.6c4 0 6.9 1.2 8.5 3.5s2.6 6.1 2.6 11.5v15a44.85 44.85 0 0 1-.6 7.1 13.57 13.57 0 0 1-1.8 4.7 7 7 0 0 1-3.5 2.5 16 16 0 0 1-5.3.8h-8.5Z"/><path class="cls-1" d="M453 156.5h1.6v-7.2l2.6 7.2h1.4l2.6-7.2v7.2h1.6v-9.4h-2.3l-2.5 7.4-2.6-7.4H453v9.4zm-8.6-8h2.9v8h1.7v-8h3v-1.4h-7.6v1.4zm-19.4 8 54-54h-32.5l-54.1 54H425zm-7.8-30.5h-65.4c-19.9 0-23.4 1.1-32 9.6-8 8-21 20.9-21 20.9h28.3l6.8-6.8c4.4-4.4 6.7-4.9 16.1-4.9h48.4Z"/><path class="cls-1" d="M318.9 131.7c-5.9 5.6-18.7 18-25.7 24.8h-30.5s24.4-24.4 38-37.7c14-13.3 21-16.3 46.6-16.3h93.4l-20.2 20.2h-71.3c-17.9 0-22 1.2-30.3 9z"/></g></g></svg>